# xmcd
#
# Track frame offsets:
#	150
#	14953
#	31010
#	47830
#	66855
#	83566
#	99364
#	117258
#	136297
#	152642
#
# Disc length: 2275 seconds
#
# Revision: 0
# Processed by: cddbd v1.4PL0 Copyright (c) Steve Scherf et al.
# Submitted via: audiograbber 1.81.00
#
DISCID=7a08e10a
DTITLE=Fiorella Mannoia - Momento delicato
DYEAR=1900
DGENRE=pop
TTITLE0=L'aiuola
TTITLE1=Happy End
TTITLE2=L'anima lo sà
TTITLE3=Canto e vivo
TTITLE4=Quasi amore
TTITLE5=Quand'eri tu la musica
TTITLE6=Dolce mistero
TTITLE7=Momento delicato
TTITLE8=La luna stasera
TTITLE9=Viva la vita
EXTD=
EXTT0=
EXTT1=
EXTT2=
EXTT3=
EXTT4=
EXTT5=
EXTT6=
EXTT7=
EXTT8=
EXTT9=
PLAYORDER=
